<svg preserveAspectRatio="none" width="100%" height="100%" overflow="visible" style="display: block;" viewBox="0 0 12 12" fill="none" xmlns="http://www.w3.org/2000/svg">
<g id="alipay" clip-path="url(#clip0_0_134)">
<path id="Vector" d="M12.0006 8.2152V2.307C12.0003 1.69514 11.757 1.10844 11.3243 0.675844C10.8916 0.243249 10.3049 0.000158966 9.693 0L2.307 0C1.69524 0.000317961 1.10863 0.243478 0.676056 0.676056C0.243478 1.10863 0.000317961 1.69524 0 2.307V9.693C0.000159055 10.3048 0.243268 10.8915 0.67588 11.3241C1.10849 11.7567 1.69519 11.9998 2.307 12H9.693C10.2342 11.9996 10.7581 11.8092 11.1732 11.4621C11.5884 11.1149 11.8685 10.633 11.9646 10.1004C11.3526 9.8352 8.7006 8.6904 7.3188 8.0304C6.2676 9.3042 5.166 10.0686 3.5064 10.0686C1.8468 10.0686 0.7386 9.0462 0.8718 7.7946C0.9594 6.9738 1.5228 5.6316 3.969 5.8614C5.259 5.9826 5.8488 6.2232 6.9006 6.5706C7.1724 6.0714 7.3986 5.5224 7.5702 4.9386H2.907V4.4766H5.2146V3.6462H2.4V3.138H5.214V1.941C5.214 1.941 5.2392 1.7538 5.4462 1.7538H6.6V3.138H9.6V3.6468H6.6V4.476H9.0474C8.83631 5.34988 8.50153 6.18915 8.0532 6.9684C8.7642 7.2264 12 8.2152 12 8.2152H12.0006ZM3.3228 9.2766C1.569 9.2766 1.2918 8.1696 1.3848 7.707C1.4766 7.2462 1.9848 6.645 2.9598 6.645C4.08 6.645 5.0838 6.9318 6.2886 7.5186C5.4426 8.6202 4.4028 9.2766 3.3228 9.2766Z" fill="var(--fill-0, #009FE8)"/>
</g>
<defs>
<clipPath id="clip0_0_134">
<rect width="12" height="12" fill="white"/>
</clipPath>
</defs>
</svg>
